<?xml version="1.0" encoding="UTF-8"?>
<svg id="Layer_2" data-name="Layer 2" xmlns="http://www.w3.org/2000/svg" viewBox="0 0 236.3 236.3">
  <defs>
    <style>
      .cls-1 {
        fill: none;
        stroke: #2d3393;
        stroke-miterlimit: 10;
        stroke-width: 8px;
      }

      .cls-2 {
        letter-spacing: 0em;
      }

      .cls-3 {
        fill: #fff;
        font-family: MinionConceptRoman-Display, 'Minion Variable Concept';
        font-size: 59px;
        font-variation-settings: 'wght' 400, 'opsz' 36;
      }

      .cls-4 {
        fill: #2d3393;
      }

      .cls-4, .cls-5 {
        stroke-width: 0px;
      }

      .cls-6 {
        letter-spacing: 0em;
      }

      .cls-7 {
        letter-spacing: 0em;
      }

      .cls-5 {
        fill: #f2d219;
      }

      .cls-8 {
        letter-spacing: .02em;
      }

      .cls-9 {
        letter-spacing: 0em;
      }
    </style>
  </defs>
  <g id="Layer_1-2" data-name="Layer 1">
    <g>
      <g>
        <path class="cls-4" d="M127.57,229.71h-16.92c-1.12-.28-2.22-.7-3.35-.81-45.82-4.56-84.55-37.58-96.25-82.32-1.75-6.69-2.65-13.6-3.94-20.41,0-5.64,0-11.28,0-16.92.3-1.44.72-2.87.87-4.32C14.66,42.79,72.85-2.19,134.93,6.82c59.25,8.6,101.27,61.45,95.29,121.31-4.53,45.29-29.06,76.62-71,93.78-9.95,4.07-21.07,5.28-31.64,7.8ZM132.44,86.31c-4.91,4.39-10.78,2.9-16.51,2.55-8.41-.51-10.69,1.02-12.89,8.96-.92,3.34-1.64,6.77-2.11,10.2-.88,6.36,2.28,9.87,8.69,9.87,32.84.01,65.68.02,98.52,0,9.45,0,9.12.89,8.05-8.91-.27-2.47-.54-4.93-.92-7.38-6.81-43.27-43.59-78.81-89.98-81.84-51.85-3.38-92.76,31.97-102.7,76.09-1.57,6.96-2.02,14.17-3.03,21.62h75.74c0-6.02.03-11.64,0-17.25-.04-6.89-2.82-10.76-9.57-11.74-12.12-1.76-23.85-1.55-31.59,10.5-2.67-5.25-2.09-6.72,2.73-8.21,1.07-.33,2.07-1.05,2.96-1.78,5.25-4.28,10.86-5.63,17.59-3.61,5.83,1.75,7.59.15,7.18-6.15-.44-6.69-1.51-13.35-2.42-21-7.37-.46-15.42-1.05-23.48-1.39-1.75-.07-3.66.47-5.28,1.2-3.69,1.67-3.64,1.79-4.6-3.26,11.32,0,22.5-.04,33.69.03,2.64.01,5.32.73,7.9.43,1.84-.21,4.3-1.14,5.14-2.55,1.5-2.53-.59-3.85-2.87-5.14-4.15-2.34-4.01-7.46.32-9.39,2.63-1.17,5.75-1.51,8.67-1.66,4.66-.23,6.61,2.24,5.74,6.81-.35,1.86-.91,3.69-1.29,5.24,5.13-1.05,9.87-2.01,14.61-2.98.14.61.29,1.22.43,1.84-1.96.71-4.04,1.18-5.85,2.16-3.59,1.96-7.37,3.79-10.44,6.42-3.22,2.76-5.48,6.85-3.72,11.11,1.78,4.31,6.46,4.87,10.32,4.06,7.39-1.55,14.53-4.22,21.89-5.94,5.38-1.25,11.19-3.13,16.36-2.2,7.88,1.42,14.53,2.48,21.5-3.3,4.92-4.08,13.44-1.67,17.54,3.2,4.24,5.03,4.74,12.26.57,18.17-1.07-1.93-2.27-3.39-2.69-5.05-.52-2.05-.32-4.28-.58-6.42-.77-6.27-3.86-8.6-9.92-6.81-6.71,1.98-11.61,6.18-13.74,13.16-1.37,4.48-.36,8.15,3.28,11.1,2.92,2.37,5.83,4.73,8.31,6.74-1.37,3.09-3.64,5.73-3.35,8.05.82,6.61-2.55,10.33-7.29,13.62-4.24-3.57-4.08-5.13.77-7.91,3.84-2.21,5.55-7.02,3.64-10.27-3.52-5.99-13.93-9.38-22.2-6.39,2.96,1.78,5.42,3.27,7.89,4.76-.3.76-.61,1.52-.91,2.27-10.74.13-20.48,2.44-26.85,12.24-2.22-7.13-1.52-7.73,13.83-12.91-2.3-3.55-4.57-7.07-7.09-10.97ZM42.54,142.92c1.56.99,2.03,1.46,2.58,1.6,5.69,1.49,3.31,6.09,3.44,9.47.13,3.43-2.65,4.12-5.52,4.32-8.45.59-14.54-4.42-16.24-13.39-1.84-9.75,2.12-17.64,10.1-20.1,6.81-2.1,10.28-.53,16.12,7.3,1.64-6.81.13-9.23-6.38-9.8-2.63-.23-5.31-.25-7.94-.06-10.25.74-17.77,8.2-18.44,18.15-.66,9.77,5.56,17.89,15.9,19.56,4.44.72,9.15-.12,13.73-.41,2.97-.19,4.04-1.79,3.99-4.92-.06-3.8.71-7.61,1.15-11.72h-12.49ZM98.15,159.62c-4.6-5.97-2.22-12.47-2.11-18.6.02-1.05,3.22-2.69,5.06-2.86,1.53-.14,4.44,1.29,4.62,2.38,1.08,6.38,3,13.03-1.95,18.99h9.45c-.64-2.44-1.46-4.58-1.72-6.79-.29-2.45-.06-4.96-.08-7.44-.02-3.85-.05-7.76-3.87-10.1-4.05-2.49-7.23.04-10.48,2.02-.25.15-.59.16-.81.22-2.45-5.41-5.35-1.02-6.63-.92.41,4.2,1.03,8,1.1,11.81.07,3.94,1.47,8.41-4.17,11.28h11.59ZM180.53,135.39c1.12,2.87,2.32,4.98,2.72,7.22.43,2.41-.1,4.98.14,7.44.46,4.6-2.09,6.57-6.06,6.6-4.08.03-5.05-3.03-5.03-6.56.03-4.93,0-9.87,0-15.23-2.8.24-5.01.43-6.69.58.71,2.81,1.56,5.12,1.83,7.49.3,2.62-.4,5.41.19,7.92.72,3.03,1.59,7.14,3.77,8.39,2.13,1.22,6-.52,9.08-1.09.74-.14,1.38-.78,2.1-1.21,2.51,5.82,5.75,1.39,8.88,1.08-5.27-2.3-3.15-6.78-3.38-10.4-.25-4.08-.06-8.18-.06-12.72-3.3.21-5.83.38-7.49.49ZM151.69,157.48c4,3.84,5.01,3.77,7.41.65-1.13-2.74-2.37-4.59-2.59-6.56-.38-3.43.07-6.94-.19-10.4-.42-5.49-4.66-8.07-9.81-6.1-1.68.65-3.42,1.4-4.79,2.52-1.13.91-1.82,2.4-2.51,3.73-.08.14,1.58,1.48,1.69,1.38,1.01-.86,1.73-2.09,2.79-2.86,1.45-1.05,3.2-2.57,4.69-2.43,1.17.11,2.94,2.39,2.98,3.75.05,1.49-1.24,3.55-2.57,4.43-2.16,1.42-4.94,1.85-7.24,3.11-3.09,1.7-3.77,4.52-2.29,7.64,1.52,3.18,4.06,4.82,7.66,3.62,1.54-.51,2.92-1.51,4.77-2.5ZM67.23,146.06c3.52-.33,7.1-.73,10.7-.99,4.93-.36,6.53-2.91,3.25-6.46-2.05-2.22-5.92-4.25-8.73-3.96-5.56.58-8.75,5.01-10.07,10.35-1.24,5.02-.1,9.58,3.94,13.05,5.04,4.33,12.33,2.69,14.84-3.22-9.34,3.08-14.19.21-13.93-8.76ZM209.39,159.55c-1.2-1.68-2.94-3.04-3.11-4.57-.41-3.75-.46-7.63.03-11.36.38-2.88,1.95-5.25,5.8-4.37,1.1.25,2.62-.35,3.6-1.05.34-.24-.08-2.57-.69-2.88-1.14-.58-2.87-.85-4-.38-1.6.66-2.87,2.1-4.45,3.34-.35-1.27-.68-2.45-1.08-3.88-2.5.78-4.73,1.47-7.28,2.27,4.39,4.27,4.18,18.33.11,22.88h11.06ZM120.37,135.74c.82,2,2,3.69,2.14,5.47.31,3.94-.3,7.98.25,11.87.35,2.43,1.62,5.86,3.44,6.65,2.01.87,5.1-.75,7.43-1.23-2.5-1.79-5.71-2.94-5.88-4.44-.63-5.47-.25-11.06-.25-16.4,2.35-.47,4-.79,5.65-1.12-.01-.29-.03-.58-.04-.88-1.79-.41-3.58-.83-5.4-1.25-.34-2.4-.65-4.59-.95-6.77-.39-.09-.78-.19-1.16-.28-1.89,3.04-3.79,6.08-5.22,8.38Z"/>
        <path class="cls-4" d="M66.73,141.29c2.07-1.55,4-4.07,6.26-4.43,3.34-.53,4.51,2.37,4.67,5.91h-9.73c-.4-.49-.8-.99-1.2-1.48Z"/>
      </g>
      <polyline class="cls-5" points="111.49 202.63 120.37 175.28 129.24 202.63 105.97 185.72 134.76 185.72"/>
      <polyline class="cls-5" points="145.48 202.63 154.36 175.28 163.24 202.63 139.96 185.72 168.76 185.72"/>
      <polyline class="cls-5" points="77.49 202.63 86.37 175.28 95.25 202.63 71.97 185.72 100.77 185.72"/>
      <circle class="cls-1" cx="118.15" cy="118.15" r="114.15"/>
      <rect class="cls-4" x="20.21" y="120.18" width="198.51" height="44.44"/>
      <text class="cls-3" transform="translate(26.65 163.16)"><tspan class="cls-8" x="0" y="0">G</tspan><tspan class="cls-7" x="42.42" y="0">e</tspan><tspan class="cls-2" x="66.02" y="0">n</tspan><tspan class="cls-6" x="95.75" y="0">t</tspan><tspan x="111.92" y="0">a</tspan><tspan class="cls-9" x="135.52" y="0">u</tspan><tspan x="164.25" y="0">r</tspan></text>
    </g>
  </g>
</svg>